<svg xmlns="http://www.w3.org/2000/svg" xmlns:xlink="http://www.w3.org/1999/xlink" width="400" zoomAndPan="magnify" viewBox="0 0 300 107.999999" height="144" preserveAspectRatio="xMidYMid meet" version="1.2"><defs><clipPath id="2f9b8c3c6d"><path d="M 0 13.847656 L 83 13.847656 L 83 62 L 0 62 Z M 0 13.847656 "/></clipPath><clipPath id="6eb0d29e3f"><path d="M 18 52 L 83.25 52 L 83.25 96 L 18 96 Z M 18 52 "/></clipPath><clipPath id="030e599325"><path d="M 42 55 L 83.25 55 L 83.25 97.097656 L 42 97.097656 Z M 42 55 "/></clipPath><clipPath id="43bfa619a9"><path d="M 65 58 L 83.25 58 L 83.25 90 L 65 90 Z M 65 58 "/></clipPath></defs><g id="c4cf148d1c"><g clip-rule="nonzero" clip-path="url(#2f9b8c3c6d)"><path style=" stroke:none;fill-rule:nonzero;fill:#ff7f50;fill-opacity:1;" d="M 41.609375 13.875 C 30.53125 13.882812 19.90625 18.308594 12.101562 26.175781 L 36.953125 28.347656 L 8.535156 30.28125 C 5.71875 33.988281 3.542969 38.140625 2.101562 42.570312 L 14.894531 43.691406 L 1.449219 44.605469 C 0.480469 48.15625 -0.0117188 51.816406 -0.0117188 55.5 C 0.00390625 57.472656 0.15625 59.441406 0.449219 61.390625 C 14.777344 51.507812 32.445312 45.664062 51.566406 45.667969 C 62.640625 45.664062 73.226562 47.628906 82.964844 51.199219 C 82.496094 46.800781 81.332031 42.507812 79.515625 38.476562 L 63.363281 37.378906 L 78.339844 36.066406 C 76.007812 31.664062 72.898438 27.71875 69.167969 24.417969 L 38.609375 23.027344 L 65.449219 21.472656 C 58.46875 16.554688 50.148438 13.902344 41.609375 13.875 Z M 41.609375 13.875 "/></g><path style=" stroke:none;fill-rule:nonzero;fill:#006811;fill-opacity:1;" d="M 56.894531 48.15625 C 35.40625 48.15625 16.160156 57.195312 3.207031 71.457031 C 4.753906 75.1875 6.835938 78.675781 9.390625 81.808594 C 21.257812 63.363281 42.773438 51.035156 67.339844 51.035156 C 72.5 51.035156 77.519531 51.582031 82.34375 52.609375 C 74.445312 49.734375 65.867188 48.15625 56.894531 48.15625 Z M 56.894531 48.15625 "/><g clip-rule="nonzero" clip-path="url(#6eb0d29e3f)"><path style=" stroke:none;fill-rule:nonzero;fill:#00943c;fill-opacity:1;" d="M 71.507812 52.984375 C 46.488281 52.984375 25.359375 68.652344 18.570312 90.136719 C 22.199219 92.542969 26.179688 94.363281 30.371094 95.535156 C 33.789062 72.152344 55.085938 54.144531 80.851562 54.144531 C 81.636719 54.144531 82.414062 54.160156 83.1875 54.195312 L 83.1875 54.15625 C 79.421875 53.390625 75.515625 52.984375 71.507812 52.984375 "/></g><g clip-rule="nonzero" clip-path="url(#030e599325)"><path style=" stroke:none;fill-rule:nonzero;fill:#63b32e;fill-opacity:1;" d="M 83.226562 55.613281 C 60.621094 56 42.421875 73.375 42.421875 94.757812 C 42.421875 95.542969 42.449219 96.320312 42.496094 97.089844 C 47.539062 96.984375 52.515625 95.957031 57.1875 94.070312 C 56.847656 92.222656 56.667969 90.320312 56.667969 88.378906 C 56.667969 72.941406 67.960938 60 83.1875 56.453125 C 83.203125 56.171875 83.214844 55.894531 83.226562 55.613281 Z M 83.226562 55.613281 "/></g><g clip-rule="nonzero" clip-path="url(#43bfa619a9)"><path style=" stroke:none;fill-rule:nonzero;fill:#63b32e;fill-opacity:1;" d="M 83.085938 58.441406 C 72.636719 62.414062 65.261719 72.050781 65.261719 83.316406 C 65.261719 85.339844 65.503906 87.304688 65.953125 89.199219 C 75.929688 81.984375 82.207031 70.722656 83.085938 58.441406 Z M 83.085938 58.441406 "/></g><g style="fill:#63b32e;fill-opacity:0.4;"><g transform="translate(91.064073, 69.742405)"><path style="stroke:none" d="M 24.046875 -5.109375 L 12.78125 -5.109375 L 11.125 0 L 0 0 L 12.359375 -33.78125 L 24.578125 -33.78125 L 36.890625 0 L 25.71875 0 Z M 21.46875 -13.078125 L 18.421875 -22.46875 L 15.359375 -13.078125 Z M 21.46875 -13.078125 "/></g></g><g style="fill:#63b32e;fill-opacity:0.4;"><g transform="translate(133.057548, 69.742405)"><path style="stroke:none" d="M 17.890625 -28.828125 C 17.316406 -28.890625 16.921875 -28.921875 16.703125 -28.921875 C 15.910156 -28.921875 15.304688 -28.769531 14.890625 -28.46875 C 14.472656 -28.164062 14.1875 -27.644531 14.03125 -26.90625 L 17.890625 -26.90625 L 17.890625 -18.078125 L 13.9375 -18.078125 L 13.9375 0 L 3.34375 0 L 3.34375 -18.078125 L 0.484375 -18.078125 L 0.484375 -26.90625 L 3.34375 -26.90625 C 3.40625 -30.40625 4.507812 -33.117188 6.65625 -35.046875 C 8.800781 -36.972656 11.816406 -37.9375 15.703125 -37.9375 C 16.148438 -37.9375 16.878906 -37.90625 17.890625 -37.84375 Z M 17.890625 -28.828125 "/></g></g><g style="fill:#63b32e;fill-opacity:0.4;"><g transform="translate(156.53601, 69.742405)"><path style="stroke:none" d="M 1.4375 -16.9375 C 1.4375 -20.28125 2.109375 -23.253906 3.453125 -25.859375 C 4.804688 -28.472656 6.738281 -30.503906 9.25 -31.953125 C 11.769531 -33.398438 14.734375 -34.125 18.140625 -34.125 C 21.054688 -34.125 23.664062 -33.570312 25.96875 -32.46875 C 28.28125 -31.375 30.160156 -29.820312 31.609375 -27.8125 C 33.054688 -25.8125 34.019531 -23.476562 34.5 -20.8125 L 23.328125 -20.8125 C 22.828125 -21.914062 22.101562 -22.78125 21.15625 -23.40625 C 20.21875 -24.03125 19.144531 -24.34375 17.9375 -24.34375 C 16.15625 -24.34375 14.75 -23.671875 13.71875 -22.328125 C 12.6875 -20.992188 12.171875 -19.195312 12.171875 -16.9375 C 12.171875 -14.675781 12.6875 -12.878906 13.71875 -11.546875 C 14.75 -10.210938 16.15625 -9.546875 17.9375 -9.546875 C 19.144531 -9.546875 20.21875 -9.851562 21.15625 -10.46875 C 22.101562 -11.09375 22.828125 -11.960938 23.328125 -13.078125 L 34.5 -13.078125 C 34.019531 -10.398438 33.054688 -8.054688 31.609375 -6.046875 C 30.160156 -4.046875 28.28125 -2.5 25.96875 -1.40625 C 23.664062 -0.3125 21.054688 0.234375 18.140625 0.234375 C 14.734375 0.234375 11.769531 -0.488281 9.25 -1.9375 C 6.738281 -3.382812 4.804688 -5.410156 3.453125 -8.015625 C 2.109375 -10.628906 1.4375 -13.601562 1.4375 -16.9375 Z M 1.4375 -16.9375 "/></g></g><g style="fill:#63b32e;fill-opacity:0.4;"><g transform="translate(197.575113, 69.742405)"><path style="stroke:none" d="M 12.984375 -25.34375 L 12.984375 -21.1875 L 23.484375 -21.1875 L 23.484375 -13.21875 L 12.984375 -13.21875 L 12.984375 -8.453125 L 24.90625 -8.453125 L 24.90625 0 L 2.390625 0 L 2.390625 -33.78125 L 24.90625 -33.78125 L 24.90625 -25.34375 Z M 12.984375 -25.34375 "/></g></g><g style="fill:#63b32e;fill-opacity:0.4;"><g transform="translate(229.213545, 69.742405)"><path style="stroke:none" d="M 34.78125 0 L 24.1875 0 L 12.984375 -16.984375 L 12.984375 0 L 2.390625 0 L 2.390625 -33.78125 L 12.984375 -33.78125 L 24.1875 -16.515625 L 24.1875 -33.78125 L 34.78125 -33.78125 Z M 34.78125 0 "/></g></g><g style="fill:#03320a;fill-opacity:1;"><g transform="translate(91.064073, 69.742405)"><path style="stroke:none" d="M 24.046875 -5.109375 L 12.78125 -5.109375 L 11.125 0 L 0 0 L 12.359375 -33.78125 L 24.578125 -33.78125 L 36.890625 0 L 25.71875 0 Z M 21.46875 -13.078125 L 18.421875 -22.46875 L 15.359375 -13.078125 Z M 21.46875 -13.078125 "/></g></g><g style="fill:#03320a;fill-opacity:1;"><g transform="translate(133.057548, 69.742405)"><path style="stroke:none" d="M 17.890625 -28.828125 C 17.316406 -28.890625 16.921875 -28.921875 16.703125 -28.921875 C 15.910156 -28.921875 15.304688 -28.769531 14.890625 -28.46875 C 14.472656 -28.164062 14.1875 -27.644531 14.03125 -26.90625 L 17.890625 -26.90625 L 17.890625 -18.078125 L 13.9375 -18.078125 L 13.9375 0 L 3.34375 0 L 3.34375 -18.078125 L 0.484375 -18.078125 L 0.484375 -26.90625 L 3.34375 -26.90625 C 3.40625 -30.40625 4.507812 -33.117188 6.65625 -35.046875 C 8.800781 -36.972656 11.816406 -37.9375 15.703125 -37.9375 C 16.148438 -37.9375 16.878906 -37.90625 17.890625 -37.84375 Z M 17.890625 -28.828125 "/></g></g><g style="fill:#03320a;fill-opacity:1;"><g transform="translate(156.53601, 69.742405)"><path style="stroke:none" d="M 1.4375 -16.9375 C 1.4375 -20.28125 2.109375 -23.253906 3.453125 -25.859375 C 4.804688 -28.472656 6.738281 -30.503906 9.25 -31.953125 C 11.769531 -33.398438 14.734375 -34.125 18.140625 -34.125 C 21.054688 -34.125 23.664062 -33.570312 25.96875 -32.46875 C 28.28125 -31.375 30.160156 -29.820312 31.609375 -27.8125 C 33.054688 -25.8125 34.019531 -23.476562 34.5 -20.8125 L 23.328125 -20.8125 C 22.828125 -21.914062 22.101562 -22.78125 21.15625 -23.40625 C 20.21875 -24.03125 19.144531 -24.34375 17.9375 -24.34375 C 16.15625 -24.34375 14.75 -23.671875 13.71875 -22.328125 C 12.6875 -20.992188 12.171875 -19.195312 12.171875 -16.9375 C 12.171875 -14.675781 12.6875 -12.878906 13.71875 -11.546875 C 14.75 -10.210938 16.15625 -9.546875 17.9375 -9.546875 C 19.144531 -9.546875 20.21875 -9.851562 21.15625 -10.46875 C 22.101562 -11.09375 22.828125 -11.960938 23.328125 -13.078125 L 34.5 -13.078125 C 34.019531 -10.398438 33.054688 -8.054688 31.609375 -6.046875 C 30.160156 -4.046875 28.28125 -2.5 25.96875 -1.40625 C 23.664062 -0.3125 21.054688 0.234375 18.140625 0.234375 C 14.734375 0.234375 11.769531 -0.488281 9.25 -1.9375 C 6.738281 -3.382812 4.804688 -5.410156 3.453125 -8.015625 C 2.109375 -10.628906 1.4375 -13.601562 1.4375 -16.9375 Z M 1.4375 -16.9375 "/></g></g><g style="fill:#03320a;fill-opacity:1;"><g transform="translate(197.575113, 69.742405)"><path style="stroke:none" d="M 12.984375 -25.34375 L 12.984375 -21.1875 L 23.484375 -21.1875 L 23.484375 -13.21875 L 12.984375 -13.21875 L 12.984375 -8.453125 L 24.90625 -8.453125 L 24.90625 0 L 2.390625 0 L 2.390625 -33.78125 L 24.90625 -33.78125 L 24.90625 -25.34375 Z M 12.984375 -25.34375 "/></g></g><g style="fill:#03320a;fill-opacity:1;"><g transform="translate(229.213545, 69.742405)"><path style="stroke:none" d="M 34.78125 0 L 24.1875 0 L 12.984375 -16.984375 L 12.984375 0 L 2.390625 0 L 2.390625 -33.78125 L 12.984375 -33.78125 L 24.1875 -16.515625 L 24.1875 -33.78125 L 34.78125 -33.78125 Z M 34.78125 0 "/></g></g><g style="fill:#000000;fill-opacity:1;"><g transform="translate(91.064073, 82.78837)"><path style="stroke:none" d="M 4.921875 -1.453125 L 1.78125 -1.453125 L 1.15625 0 L -0.046875 0 L 2.78125 -6.28125 L 3.921875 -6.28125 L 6.765625 0 L 5.546875 0 Z M 4.53125 -2.375 L 3.34375 -5.109375 L 2.171875 -2.375 Z M 4.53125 -2.375 "/></g></g><g style="fill:#000000;fill-opacity:1;"><g transform="translate(98.485584, 82.78837)"><path style="stroke:none" d="M 2.6875 -5.8125 C 2.207031 -5.8125 1.96875 -5.554688 1.96875 -5.046875 L 1.96875 -4.75 L 3.296875 -4.75 L 3.296875 -3.859375 L 2.015625 -3.859375 L 2.015625 0 L 0.890625 0 L 0.890625 -3.859375 L 0.09375 -3.859375 L 0.09375 -4.75 L 0.890625 -4.75 L 0.890625 -5.0625 C 0.890625 -5.570312 1.035156 -5.972656 1.328125 -6.265625 C 1.628906 -6.566406 2.050781 -6.71875 2.59375 -6.71875 C 3.03125 -6.71875 3.367188 -6.628906 3.609375 -6.453125 L 3.296875 -5.609375 C 3.109375 -5.742188 2.90625 -5.8125 2.6875 -5.8125 Z M 2.6875 -5.8125 "/></g></g><g style="fill:#000000;fill-opacity:1;"><g transform="translate(102.496957, 82.78837)"><path style="stroke:none" d="M 1.796875 -4.09375 C 2.117188 -4.59375 2.6875 -4.84375 3.5 -4.84375 L 3.5 -3.78125 C 3.40625 -3.789062 3.320312 -3.796875 3.25 -3.796875 C 2.8125 -3.796875 2.46875 -3.671875 2.21875 -3.421875 C 1.976562 -3.171875 1.859375 -2.804688 1.859375 -2.328125 L 1.859375 0 L 0.734375 0 L 0.734375 -4.796875 L 1.796875 -4.796875 Z M 1.796875 -4.09375 "/></g></g><g style="fill:#000000;fill-opacity:1;"><g transform="translate(106.966012, 82.78837)"><path style="stroke:none" d="M 0.734375 -4.796875 L 1.859375 -4.796875 L 1.859375 0 L 0.734375 0 Z M 1.296875 -5.578125 C 1.085938 -5.578125 0.914062 -5.640625 0.78125 -5.765625 C 0.644531 -5.898438 0.578125 -6.0625 0.578125 -6.25 C 0.578125 -6.4375 0.644531 -6.59375 0.78125 -6.71875 C 0.914062 -6.851562 1.085938 -6.921875 1.296875 -6.921875 C 1.492188 -6.921875 1.660156 -6.859375 1.796875 -6.734375 C 1.941406 -6.617188 2.015625 -6.46875 2.015625 -6.28125 C 2.015625 -6.082031 1.945312 -5.914062 1.8125 -5.78125 C 1.675781 -5.644531 1.503906 -5.578125 1.296875 -5.578125 Z M 1.296875 -5.578125 "/></g></g><g style="fill:#000000;fill-opacity:1;"><g transform="translate(110.259463, 82.78837)"><path style="stroke:none" d="M 2.9375 0.0625 C 2.4375 0.0625 1.988281 -0.0390625 1.59375 -0.25 C 1.195312 -0.457031 0.890625 -0.75 0.671875 -1.125 C 0.453125 -1.5 0.34375 -1.921875 0.34375 -2.390625 C 0.34375 -2.867188 0.453125 -3.289062 0.671875 -3.65625 C 0.890625 -4.03125 1.191406 -4.320312 1.578125 -4.53125 C 1.972656 -4.738281 2.425781 -4.84375 2.9375 -4.84375 C 3.40625 -4.84375 3.816406 -4.742188 4.171875 -4.546875 C 4.523438 -4.359375 4.796875 -4.085938 4.984375 -3.734375 L 4.109375 -3.234375 C 3.972656 -3.453125 3.800781 -3.613281 3.59375 -3.71875 C 3.394531 -3.832031 3.171875 -3.890625 2.921875 -3.890625 C 2.503906 -3.890625 2.15625 -3.753906 1.875 -3.484375 C 1.601562 -3.210938 1.46875 -2.847656 1.46875 -2.390625 C 1.46875 -1.941406 1.601562 -1.578125 1.875 -1.296875 C 2.144531 -1.023438 2.492188 -0.890625 2.921875 -0.890625 C 3.171875 -0.890625 3.394531 -0.945312 3.59375 -1.0625 C 3.800781 -1.175781 3.972656 -1.34375 4.109375 -1.5625 L 4.984375 -1.0625 C 4.796875 -0.695312 4.519531 -0.414062 4.15625 -0.21875 C 3.800781 -0.03125 3.394531 0.0625 2.9375 0.0625 Z M 2.9375 0.0625 "/></g></g><g style="fill:#000000;fill-opacity:1;"><g transform="translate(116.173332, 82.78837)"><path style="stroke:none" d="M 2.5625 -4.84375 C 3.269531 -4.84375 3.8125 -4.671875 4.1875 -4.328125 C 4.5625 -3.992188 4.75 -3.488281 4.75 -2.8125 L 4.75 0 L 3.6875 0 L 3.6875 -0.578125 C 3.550781 -0.367188 3.351562 -0.207031 3.09375 -0.09375 C 2.84375 0.0078125 2.535156 0.0625 2.171875 0.0625 C 1.816406 0.0625 1.503906 0 1.234375 -0.125 C 0.960938 -0.25 0.753906 -0.414062 0.609375 -0.625 C 0.460938 -0.84375 0.390625 -1.09375 0.390625 -1.375 C 0.390625 -1.800781 0.550781 -2.144531 0.875 -2.40625 C 1.195312 -2.664062 1.703125 -2.796875 2.390625 -2.796875 L 3.625 -2.796875 L 3.625 -2.875 C 3.625 -3.207031 3.519531 -3.460938 3.3125 -3.640625 C 3.113281 -3.816406 2.820312 -3.90625 2.4375 -3.90625 C 2.164062 -3.90625 1.898438 -3.863281 1.640625 -3.78125 C 1.378906 -3.695312 1.160156 -3.582031 0.984375 -3.4375 L 0.53125 -4.25 C 0.789062 -4.4375 1.09375 -4.582031 1.4375 -4.6875 C 1.789062 -4.789062 2.164062 -4.84375 2.5625 -4.84375 Z M 2.40625 -0.75 C 2.6875 -0.75 2.9375 -0.8125 3.15625 -0.9375 C 3.375 -1.070312 3.53125 -1.257812 3.625 -1.5 L 3.625 -2.046875 L 2.46875 -2.046875 C 1.820312 -2.046875 1.5 -1.835938 1.5 -1.421875 C 1.5 -1.210938 1.578125 -1.046875 1.734375 -0.921875 C 1.898438 -0.804688 2.125 -0.75 2.40625 -0.75 Z M 2.40625 -0.75 "/></g></g><g style="fill:#000000;fill-opacity:1;"><g transform="translate(122.320533, 82.78837)"><path style="stroke:none" d=""/></g></g><g style="fill:#000000;fill-opacity:1;"><g transform="translate(125.497328, 82.78837)"><path style="stroke:none" d="M 3.75 0.09375 C 3.113281 0.09375 2.539062 -0.046875 2.03125 -0.328125 C 1.519531 -0.609375 1.117188 -0.992188 0.828125 -1.484375 C 0.535156 -1.972656 0.390625 -2.523438 0.390625 -3.140625 C 0.390625 -3.753906 0.535156 -4.304688 0.828125 -4.796875 C 1.128906 -5.285156 1.535156 -5.671875 2.046875 -5.953125 C 2.554688 -6.234375 3.128906 -6.375 3.765625 -6.375 C 4.273438 -6.375 4.738281 -6.28125 5.15625 -6.09375 C 5.582031 -5.914062 5.945312 -5.65625 6.25 -5.3125 L 5.484375 -4.609375 C 5.035156 -5.097656 4.476562 -5.34375 3.8125 -5.34375 C 3.382812 -5.34375 3 -5.25 2.65625 -5.0625 C 2.3125 -4.875 2.039062 -4.613281 1.84375 -4.28125 C 1.65625 -3.945312 1.5625 -3.566406 1.5625 -3.140625 C 1.5625 -2.710938 1.65625 -2.332031 1.84375 -2 C 2.039062 -1.664062 2.3125 -1.40625 2.65625 -1.21875 C 3 -1.03125 3.382812 -0.9375 3.8125 -0.9375 C 4.476562 -0.9375 5.035156 -1.179688 5.484375 -1.671875 L 6.25 -0.953125 C 5.945312 -0.617188 5.582031 -0.359375 5.15625 -0.171875 C 4.726562 0.00390625 4.257812 0.09375 3.75 0.09375 Z M 3.75 0.09375 "/></g></g><g style="fill:#000000;fill-opacity:1;"><g transform="translate(132.721407, 82.78837)"><path style="stroke:none" d="M 0.734375 -6.65625 L 1.859375 -6.65625 L 1.859375 0 L 0.734375 0 Z M 0.734375 -6.65625 "/></g></g><g style="fill:#000000;fill-opacity:1;"><g transform="translate(136.014857, 82.78837)"><path style="stroke:none" d="M 0.734375 -4.796875 L 1.859375 -4.796875 L 1.859375 0 L 0.734375 0 Z M 1.296875 -5.578125 C 1.085938 -5.578125 0.914062 -5.640625 0.78125 -5.765625 C 0.644531 -5.898438 0.578125 -6.0625 0.578125 -6.25 C 0.578125 -6.4375 0.644531 -6.59375 0.78125 -6.71875 C 0.914062 -6.851562 1.085938 -6.921875 1.296875 -6.921875 C 1.492188 -6.921875 1.660156 -6.859375 1.796875 -6.734375 C 1.941406 -6.617188 2.015625 -6.46875 2.015625 -6.28125 C 2.015625 -6.082031 1.945312 -5.914062 1.8125 -5.78125 C 1.675781 -5.644531 1.503906 -5.578125 1.296875 -5.578125 Z M 1.296875 -5.578125 "/></g></g><g style="fill:#000000;fill-opacity:1;"><g transform="translate(139.308307, 82.78837)"><path style="stroke:none" d="M 6.78125 -4.84375 C 7.382812 -4.84375 7.863281 -4.664062 8.21875 -4.3125 C 8.570312 -3.96875 8.75 -3.445312 8.75 -2.75 L 8.75 0 L 7.625 0 L 7.625 -2.59375 C 7.625 -3.019531 7.53125 -3.335938 7.34375 -3.546875 C 7.15625 -3.753906 6.890625 -3.859375 6.546875 -3.859375 C 6.171875 -3.859375 5.867188 -3.734375 5.640625 -3.484375 C 5.410156 -3.242188 5.296875 -2.894531 5.296875 -2.4375 L 5.296875 0 L 4.171875 0 L 4.171875 -2.59375 C 4.171875 -3.019531 4.078125 -3.335938 3.890625 -3.546875 C 3.710938 -3.753906 3.453125 -3.859375 3.109375 -3.859375 C 2.722656 -3.859375 2.414062 -3.734375 2.1875 -3.484375 C 1.96875 -3.242188 1.859375 -2.894531 1.859375 -2.4375 L 1.859375 0 L 0.734375 0 L 0.734375 -4.796875 L 1.796875 -4.796875 L 1.796875 -4.171875 C 1.984375 -4.390625 2.207031 -4.554688 2.46875 -4.671875 C 2.738281 -4.785156 3.039062 -4.84375 3.375 -4.84375 C 3.726562 -4.84375 4.046875 -4.773438 4.328125 -4.640625 C 4.609375 -4.503906 4.828125 -4.304688 4.984375 -4.046875 C 5.179688 -4.296875 5.4375 -4.488281 5.75 -4.625 C 6.0625 -4.769531 6.40625 -4.84375 6.78125 -4.84375 Z M 6.78125 -4.84375 "/></g></g><g style="fill:#000000;fill-opacity:1;"><g transform="translate(149.457923, 82.78837)"><path style="stroke:none" d="M 2.5625 -4.84375 C 3.269531 -4.84375 3.8125 -4.671875 4.1875 -4.328125 C 4.5625 -3.992188 4.75 -3.488281 4.75 -2.8125 L 4.75 0 L 3.6875 0 L 3.6875 -0.578125 C 3.550781 -0.367188 3.351562 -0.207031 3.09375 -0.09375 C 2.84375 0.0078125 2.535156 0.0625 2.171875 0.0625 C 1.816406 0.0625 1.503906 0 1.234375 -0.125 C 0.960938 -0.25 0.753906 -0.414062 0.609375 -0.625 C 0.460938 -0.84375 0.390625 -1.09375 0.390625 -1.375 C 0.390625 -1.800781 0.550781 -2.144531 0.875 -2.40625 C 1.195312 -2.664062 1.703125 -2.796875 2.390625 -2.796875 L 3.625 -2.796875 L 3.625 -2.875 C 3.625 -3.207031 3.519531 -3.460938 3.3125 -3.640625 C 3.113281 -3.816406 2.820312 -3.90625 2.4375 -3.90625 C 2.164062 -3.90625 1.898438 -3.863281 1.640625 -3.78125 C 1.378906 -3.695312 1.160156 -3.582031 0.984375 -3.4375 L 0.53125 -4.25 C 0.789062 -4.4375 1.09375 -4.582031 1.4375 -4.6875 C 1.789062 -4.789062 2.164062 -4.84375 2.5625 -4.84375 Z M 2.40625 -0.75 C 2.6875 -0.75 2.9375 -0.8125 3.15625 -0.9375 C 3.375 -1.070312 3.53125 -1.257812 3.625 -1.5 L 3.625 -2.046875 L 2.46875 -2.046875 C 1.820312 -2.046875 1.5 -1.835938 1.5 -1.421875 C 1.5 -1.210938 1.578125 -1.046875 1.734375 -0.921875 C 1.898438 -0.804688 2.125 -0.75 2.40625 -0.75 Z M 2.40625 -0.75 "/></g></g><g style="fill:#000000;fill-opacity:1;"><g transform="translate(155.605124, 82.78837)"><path style="stroke:none" d="M 3.609375 -0.265625 C 3.484375 -0.148438 3.328125 -0.0664062 3.140625 -0.015625 C 2.953125 0.0351562 2.75 0.0625 2.53125 0.0625 C 2.007812 0.0625 1.601562 -0.0703125 1.3125 -0.34375 C 1.03125 -0.625 0.890625 -1.023438 0.890625 -1.546875 L 0.890625 -3.859375 L 0.09375 -3.859375 L 0.09375 -4.75 L 0.890625 -4.75 L 0.890625 -5.84375 L 2.015625 -5.84375 L 2.015625 -4.75 L 3.296875 -4.75 L 3.296875 -3.859375 L 2.015625 -3.859375 L 2.015625 -1.578125 C 2.015625 -1.347656 2.066406 -1.171875 2.171875 -1.046875 C 2.285156 -0.921875 2.453125 -0.859375 2.671875 -0.859375 C 2.921875 -0.859375 3.128906 -0.925781 3.296875 -1.0625 Z M 3.609375 -0.265625 "/></g></g><g style="fill:#000000;fill-opacity:1;"><g transform="translate(160.110078, 82.78837)"><path style="stroke:none" d="M 5.234375 -2.375 C 5.234375 -2.289062 5.226562 -2.175781 5.21875 -2.03125 L 1.46875 -2.03125 C 1.53125 -1.675781 1.695312 -1.394531 1.96875 -1.1875 C 2.25 -0.988281 2.597656 -0.890625 3.015625 -0.890625 C 3.535156 -0.890625 3.96875 -1.0625 4.3125 -1.40625 L 4.921875 -0.71875 C 4.703125 -0.457031 4.425781 -0.257812 4.09375 -0.125 C 3.769531 0 3.398438 0.0625 2.984375 0.0625 C 2.460938 0.0625 2 -0.0390625 1.59375 -0.25 C 1.195312 -0.457031 0.890625 -0.75 0.671875 -1.125 C 0.453125 -1.5 0.34375 -1.921875 0.34375 -2.390625 C 0.34375 -2.859375 0.445312 -3.28125 0.65625 -3.65625 C 0.875 -4.03125 1.171875 -4.320312 1.546875 -4.53125 C 1.921875 -4.738281 2.34375 -4.84375 2.8125 -4.84375 C 3.28125 -4.84375 3.695312 -4.738281 4.0625 -4.53125 C 4.4375 -4.320312 4.722656 -4.03125 4.921875 -3.65625 C 5.128906 -3.289062 5.234375 -2.863281 5.234375 -2.375 Z M 2.8125 -3.953125 C 2.457031 -3.953125 2.15625 -3.84375 1.90625 -3.625 C 1.65625 -3.414062 1.503906 -3.132812 1.453125 -2.78125 L 4.171875 -2.78125 C 4.117188 -3.125 3.96875 -3.40625 3.71875 -3.625 C 3.476562 -3.84375 3.175781 -3.953125 2.8125 -3.953125 Z M 2.8125 -3.953125 "/></g></g><g style="fill:#000000;fill-opacity:1;"><g transform="translate(166.391883, 82.78837)"><path style="stroke:none" d=""/></g></g><g style="fill:#000000;fill-opacity:1;"><g transform="translate(169.568679, 82.78837)"><path style="stroke:none" d="M 2.5625 -4.84375 C 3.269531 -4.84375 3.8125 -4.671875 4.1875 -4.328125 C 4.5625 -3.992188 4.75 -3.488281 4.75 -2.8125 L 4.75 0 L 3.6875 0 L 3.6875 -0.578125 C 3.550781 -0.367188 3.351562 -0.207031 3.09375 -0.09375 C 2.84375 0.0078125 2.535156 0.0625 2.171875 0.0625 C 1.816406 0.0625 1.503906 0 1.234375 -0.125 C 0.960938 -0.25 0.753906 -0.414062 0.609375 -0.625 C 0.460938 -0.84375 0.390625 -1.09375 0.390625 -1.375 C 0.390625 -1.800781 0.550781 -2.144531 0.875 -2.40625 C 1.195312 -2.664062 1.703125 -2.796875 2.390625 -2.796875 L 3.625 -2.796875 L 3.625 -2.875 C 3.625 -3.207031 3.519531 -3.460938 3.3125 -3.640625 C 3.113281 -3.816406 2.820312 -3.90625 2.4375 -3.90625 C 2.164062 -3.90625 1.898438 -3.863281 1.640625 -3.78125 C 1.378906 -3.695312 1.160156 -3.582031 0.984375 -3.4375 L 0.53125 -4.25 C 0.789062 -4.4375 1.09375 -4.582031 1.4375 -4.6875 C 1.789062 -4.789062 2.164062 -4.84375 2.5625 -4.84375 Z M 2.40625 -0.75 C 2.6875 -0.75 2.9375 -0.8125 3.15625 -0.9375 C 3.375 -1.070312 3.53125 -1.257812 3.625 -1.5 L 3.625 -2.046875 L 2.46875 -2.046875 C 1.820312 -2.046875 1.5 -1.835938 1.5 -1.421875 C 1.5 -1.210938 1.578125 -1.046875 1.734375 -0.921875 C 1.898438 -0.804688 2.125 -0.75 2.40625 -0.75 Z M 2.40625 -0.75 "/></g></g><g style="fill:#000000;fill-opacity:1;"><g transform="translate(175.71588, 82.78837)"><path style="stroke:none" d="M 3.453125 -4.84375 C 4.054688 -4.84375 4.539062 -4.664062 4.90625 -4.3125 C 5.269531 -3.957031 5.453125 -3.4375 5.453125 -2.75 L 5.453125 0 L 4.328125 0 L 4.328125 -2.59375 C 4.328125 -3.019531 4.226562 -3.335938 4.03125 -3.546875 C 3.832031 -3.753906 3.550781 -3.859375 3.1875 -3.859375 C 2.78125 -3.859375 2.457031 -3.734375 2.21875 -3.484375 C 1.976562 -3.242188 1.859375 -2.890625 1.859375 -2.421875 L 1.859375 0 L 0.734375 0 L 0.734375 -4.796875 L 1.796875 -4.796875 L 1.796875 -4.171875 C 1.984375 -4.390625 2.21875 -4.554688 2.5 -4.671875 C 2.78125 -4.785156 3.097656 -4.84375 3.453125 -4.84375 Z M 3.453125 -4.84375 "/></g></g><g style="fill:#000000;fill-opacity:1;"><g transform="translate(182.563053, 82.78837)"><path style="stroke:none" d="M 5.421875 -6.65625 L 5.421875 0 L 4.34375 0 L 4.34375 -0.625 C 4.164062 -0.394531 3.9375 -0.222656 3.65625 -0.109375 C 3.382812 0.00390625 3.085938 0.0625 2.765625 0.0625 C 2.304688 0.0625 1.890625 -0.0351562 1.515625 -0.234375 C 1.148438 -0.441406 0.863281 -0.734375 0.65625 -1.109375 C 0.445312 -1.484375 0.34375 -1.910156 0.34375 -2.390625 C 0.34375 -2.878906 0.445312 -3.304688 0.65625 -3.671875 C 0.863281 -4.046875 1.148438 -4.332031 1.515625 -4.53125 C 1.890625 -4.738281 2.304688 -4.84375 2.765625 -4.84375 C 3.078125 -4.84375 3.363281 -4.785156 3.625 -4.671875 C 3.894531 -4.566406 4.125 -4.410156 4.3125 -4.203125 L 4.3125 -6.65625 Z M 2.890625 -0.890625 C 3.160156 -0.890625 3.40625 -0.953125 3.625 -1.078125 C 3.84375 -1.203125 4.015625 -1.378906 4.140625 -1.609375 C 4.265625 -1.835938 4.328125 -2.097656 4.328125 -2.390625 C 4.328125 -2.691406 4.265625 -2.957031 4.140625 -3.1875 C 4.015625 -3.414062 3.84375 -3.585938 3.625 -3.703125 C 3.40625 -3.828125 3.160156 -3.890625 2.890625 -3.890625 C 2.628906 -3.890625 2.390625 -3.828125 2.171875 -3.703125 C 1.953125 -3.585938 1.78125 -3.414062 1.65625 -3.1875 C 1.53125 -2.957031 1.46875 -2.691406 1.46875 -2.390625 C 1.46875 -2.097656 1.53125 -1.835938 1.65625 -1.609375 C 1.78125 -1.378906 1.953125 -1.203125 2.171875 -1.078125 C 2.390625 -0.953125 2.628906 -0.890625 2.890625 -0.890625 Z M 2.890625 -0.890625 "/></g></g><g style="fill:#000000;fill-opacity:1;"><g transform="translate(189.428177, 82.78837)"><path style="stroke:none" d=""/></g></g><g style="fill:#000000;fill-opacity:1;"><g transform="translate(192.604972, 82.78837)"><path style="stroke:none" d="M 5.546875 -0.984375 L 5.546875 0 L 0.84375 0 L 0.84375 -6.28125 L 5.421875 -6.28125 L 5.421875 -5.296875 L 2.015625 -5.296875 L 2.015625 -3.671875 L 5.046875 -3.671875 L 5.046875 -2.703125 L 2.015625 -2.703125 L 2.015625 -0.984375 Z M 5.546875 -0.984375 "/></g></g><g style="fill:#000000;fill-opacity:1;"><g transform="translate(199.31753, 82.78837)"><path style="stroke:none" d="M 3.453125 -4.84375 C 4.054688 -4.84375 4.539062 -4.664062 4.90625 -4.3125 C 5.269531 -3.957031 5.453125 -3.4375 5.453125 -2.75 L 5.453125 0 L 4.328125 0 L 4.328125 -2.59375 C 4.328125 -3.019531 4.226562 -3.335938 4.03125 -3.546875 C 3.832031 -3.753906 3.550781 -3.859375 3.1875 -3.859375 C 2.78125 -3.859375 2.457031 -3.734375 2.21875 -3.484375 C 1.976562 -3.242188 1.859375 -2.890625 1.859375 -2.421875 L 1.859375 0 L 0.734375 0 L 0.734375 -4.796875 L 1.796875 -4.796875 L 1.796875 -4.171875 C 1.984375 -4.390625 2.21875 -4.554688 2.5 -4.671875 C 2.78125 -4.785156 3.097656 -4.84375 3.453125 -4.84375 Z M 3.453125 -4.84375 "/></g></g><g style="fill:#000000;fill-opacity:1;"><g transform="translate(206.164704, 82.78837)"><path style="stroke:none" d="M 5.234375 -2.375 C 5.234375 -2.289062 5.226562 -2.175781 5.21875 -2.03125 L 1.46875 -2.03125 C 1.53125 -1.675781 1.695312 -1.394531 1.96875 -1.1875 C 2.25 -0.988281 2.597656 -0.890625 3.015625 -0.890625 C 3.535156 -0.890625 3.96875 -1.0625 4.3125 -1.40625 L 4.921875 -0.71875 C 4.703125 -0.457031 4.425781 -0.257812 4.09375 -0.125 C 3.769531 0 3.398438 0.0625 2.984375 0.0625 C 2.460938 0.0625 2 -0.0390625 1.59375 -0.25 C 1.195312 -0.457031 0.890625 -0.75 0.671875 -1.125 C 0.453125 -1.5 0.34375 -1.921875 0.34375 -2.390625 C 0.34375 -2.859375 0.445312 -3.28125 0.65625 -3.65625 C 0.875 -4.03125 1.171875 -4.320312 1.546875 -4.53125 C 1.921875 -4.738281 2.34375 -4.84375 2.8125 -4.84375 C 3.28125 -4.84375 3.695312 -4.738281 4.0625 -4.53125 C 4.4375 -4.320312 4.722656 -4.03125 4.921875 -3.65625 C 5.128906 -3.289062 5.234375 -2.863281 5.234375 -2.375 Z M 2.8125 -3.953125 C 2.457031 -3.953125 2.15625 -3.84375 1.90625 -3.625 C 1.65625 -3.414062 1.503906 -3.132812 1.453125 -2.78125 L 4.171875 -2.78125 C 4.117188 -3.125 3.96875 -3.40625 3.71875 -3.625 C 3.476562 -3.84375 3.175781 -3.953125 2.8125 -3.953125 Z M 2.8125 -3.953125 "/></g></g><g style="fill:#000000;fill-opacity:1;"><g transform="translate(212.446509, 82.78837)"><path style="stroke:none" d="M 1.796875 -4.09375 C 2.117188 -4.59375 2.6875 -4.84375 3.5 -4.84375 L 3.5 -3.78125 C 3.40625 -3.789062 3.320312 -3.796875 3.25 -3.796875 C 2.8125 -3.796875 2.46875 -3.671875 2.21875 -3.421875 C 1.976562 -3.171875 1.859375 -2.804688 1.859375 -2.328125 L 1.859375 0 L 0.734375 0 L 0.734375 -4.796875 L 1.796875 -4.796875 Z M 1.796875 -4.09375 "/></g></g><g style="fill:#000000;fill-opacity:1;"><g transform="translate(216.915565, 82.78837)"><path style="stroke:none" d="M 5.484375 -4.796875 L 5.484375 -0.71875 C 5.484375 0.957031 4.625 1.796875 2.90625 1.796875 C 2.445312 1.796875 2.007812 1.738281 1.59375 1.625 C 1.1875 1.507812 0.847656 1.34375 0.578125 1.125 L 1.078125 0.28125 C 1.285156 0.445312 1.546875 0.582031 1.859375 0.6875 C 2.179688 0.800781 2.507812 0.859375 2.84375 0.859375 C 3.363281 0.859375 3.75 0.738281 4 0.5 C 4.25 0.257812 4.375 -0.101562 4.375 -0.59375 L 4.375 -0.859375 C 4.175781 -0.640625 3.9375 -0.476562 3.65625 -0.375 C 3.382812 -0.269531 3.085938 -0.21875 2.765625 -0.21875 C 2.304688 -0.21875 1.894531 -0.3125 1.53125 -0.5 C 1.164062 -0.695312 0.875 -0.972656 0.65625 -1.328125 C 0.445312 -1.679688 0.34375 -2.082031 0.34375 -2.53125 C 0.34375 -2.988281 0.445312 -3.390625 0.65625 -3.734375 C 0.875 -4.085938 1.164062 -4.359375 1.53125 -4.546875 C 1.894531 -4.742188 2.304688 -4.84375 2.765625 -4.84375 C 3.109375 -4.84375 3.421875 -4.785156 3.703125 -4.671875 C 3.992188 -4.554688 4.234375 -4.382812 4.421875 -4.15625 L 4.421875 -4.796875 Z M 2.9375 -1.171875 C 3.351562 -1.171875 3.695312 -1.296875 3.96875 -1.546875 C 4.25 -1.796875 4.390625 -2.125 4.390625 -2.53125 C 4.390625 -2.9375 4.25 -3.265625 3.96875 -3.515625 C 3.695312 -3.765625 3.351562 -3.890625 2.9375 -3.890625 C 2.5 -3.890625 2.144531 -3.765625 1.875 -3.515625 C 1.601562 -3.265625 1.46875 -2.9375 1.46875 -2.53125 C 1.46875 -2.125 1.601562 -1.796875 1.875 -1.546875 C 2.144531 -1.296875 2.5 -1.171875 2.9375 -1.171875 Z M 2.9375 -1.171875 "/></g></g><g style="fill:#000000;fill-opacity:1;"><g transform="translate(223.843505, 82.78837)"><path style="stroke:none" d="M 5.21875 -4.796875 L 2.984375 0.390625 C 2.765625 0.910156 2.503906 1.273438 2.203125 1.484375 C 1.910156 1.691406 1.550781 1.796875 1.125 1.796875 C 0.882812 1.796875 0.648438 1.753906 0.421875 1.671875 C 0.191406 1.597656 0 1.492188 -0.15625 1.359375 L 0.296875 0.53125 C 0.398438 0.632812 0.523438 0.71875 0.671875 0.78125 C 0.816406 0.84375 0.96875 0.875 1.125 0.875 C 1.320312 0.875 1.484375 0.820312 1.609375 0.71875 C 1.734375 0.613281 1.851562 0.441406 1.96875 0.203125 L 2.046875 0.015625 L -0.046875 -4.796875 L 1.125 -4.796875 L 2.625 -1.25 L 4.140625 -4.796875 Z M 5.21875 -4.796875 "/></g></g><g style="fill:#000000;fill-opacity:1;"><g transform="translate(229.730456, 82.78837)"><path style="stroke:none" d=""/></g></g><g style="fill:#000000;fill-opacity:1;"><g transform="translate(232.907251, 82.78837)"><path style="stroke:none" d="M 6.421875 -6.28125 L 6.421875 0 L 5.46875 0 L 2 -4.25 L 2 0 L 0.84375 0 L 0.84375 -6.28125 L 1.796875 -6.28125 L 5.265625 -2.03125 L 5.265625 -6.28125 Z M 6.421875 -6.28125 "/></g></g><g style="fill:#000000;fill-opacity:1;"><g transform="translate(240.87617, 82.78837)"><path style="stroke:none" d="M 5.234375 -2.375 C 5.234375 -2.289062 5.226562 -2.175781 5.21875 -2.03125 L 1.46875 -2.03125 C 1.53125 -1.675781 1.695312 -1.394531 1.96875 -1.1875 C 2.25 -0.988281 2.597656 -0.890625 3.015625 -0.890625 C 3.535156 -0.890625 3.96875 -1.0625 4.3125 -1.40625 L 4.921875 -0.71875 C 4.703125 -0.457031 4.425781 -0.257812 4.09375 -0.125 C 3.769531 0 3.398438 0.0625 2.984375 0.0625 C 2.460938 0.0625 2 -0.0390625 1.59375 -0.25 C 1.195312 -0.457031 0.890625 -0.75 0.671875 -1.125 C 0.453125 -1.5 0.34375 -1.921875 0.34375 -2.390625 C 0.34375 -2.859375 0.445312 -3.28125 0.65625 -3.65625 C 0.875 -4.03125 1.171875 -4.320312 1.546875 -4.53125 C 1.921875 -4.738281 2.34375 -4.84375 2.8125 -4.84375 C 3.28125 -4.84375 3.695312 -4.738281 4.0625 -4.53125 C 4.4375 -4.320312 4.722656 -4.03125 4.921875 -3.65625 C 5.128906 -3.289062 5.234375 -2.863281 5.234375 -2.375 Z M 2.8125 -3.953125 C 2.457031 -3.953125 2.15625 -3.84375 1.90625 -3.625 C 1.65625 -3.414062 1.503906 -3.132812 1.453125 -2.78125 L 4.171875 -2.78125 C 4.117188 -3.125 3.96875 -3.40625 3.71875 -3.625 C 3.476562 -3.84375 3.175781 -3.953125 2.8125 -3.953125 Z M 2.8125 -3.953125 "/></g></g><g style="fill:#000000;fill-opacity:1;"><g transform="translate(247.157975, 82.78837)"><path style="stroke:none" d="M 3.78125 0 L 2.5625 -1.65625 L 1.3125 0 L 0.078125 0 L 1.953125 -2.4375 L 0.15625 -4.796875 L 1.40625 -4.796875 L 2.578125 -3.21875 L 3.765625 -4.796875 L 4.96875 -4.796875 L 3.171875 -2.453125 L 5.046875 0 Z M 3.78125 0 "/></g></g><g style="fill:#000000;fill-opacity:1;"><g transform="translate(253.000058, 82.78837)"><path style="stroke:none" d="M 5.375 -4.796875 L 5.375 0 L 4.3125 0 L 4.3125 -0.609375 C 4.125 -0.390625 3.894531 -0.222656 3.625 -0.109375 C 3.363281 0.00390625 3.078125 0.0625 2.765625 0.0625 C 2.117188 0.0625 1.613281 -0.113281 1.25 -0.46875 C 0.882812 -0.820312 0.703125 -1.347656 0.703125 -2.046875 L 0.703125 -4.796875 L 1.828125 -4.796875 L 1.828125 -2.203125 C 1.828125 -1.773438 1.921875 -1.453125 2.109375 -1.234375 C 2.304688 -1.023438 2.582031 -0.921875 2.9375 -0.921875 C 3.34375 -0.921875 3.660156 -1.046875 3.890625 -1.296875 C 4.128906 -1.546875 4.25 -1.90625 4.25 -2.375 L 4.25 -4.796875 Z M 5.375 -4.796875 "/></g></g><g style="fill:#000000;fill-opacity:1;"><g transform="translate(259.811333, 82.78837)"><path style="stroke:none" d="M 2.21875 0.0625 C 1.820312 0.0625 1.4375 0.015625 1.0625 -0.078125 C 0.695312 -0.179688 0.40625 -0.3125 0.1875 -0.46875 L 0.625 -1.328125 C 0.832031 -1.179688 1.085938 -1.066406 1.390625 -0.984375 C 1.691406 -0.898438 1.988281 -0.859375 2.28125 -0.859375 C 2.957031 -0.859375 3.296875 -1.03125 3.296875 -1.375 C 3.296875 -1.539062 3.207031 -1.65625 3.03125 -1.71875 C 2.863281 -1.789062 2.59375 -1.859375 2.21875 -1.921875 C 1.820312 -1.984375 1.5 -2.050781 1.25 -2.125 C 1 -2.207031 0.78125 -2.34375 0.59375 -2.53125 C 0.414062 -2.726562 0.328125 -3 0.328125 -3.34375 C 0.328125 -3.800781 0.515625 -4.164062 0.890625 -4.4375 C 1.273438 -4.707031 1.789062 -4.84375 2.4375 -4.84375 C 2.769531 -4.84375 3.097656 -4.804688 3.421875 -4.734375 C 3.753906 -4.660156 4.023438 -4.5625 4.234375 -4.4375 L 3.796875 -3.578125 C 3.390625 -3.816406 2.9375 -3.9375 2.4375 -3.9375 C 2.101562 -3.9375 1.847656 -3.882812 1.671875 -3.78125 C 1.503906 -3.6875 1.421875 -3.5625 1.421875 -3.40625 C 1.421875 -3.21875 1.507812 -3.085938 1.6875 -3.015625 C 1.875 -2.941406 2.160156 -2.875 2.546875 -2.8125 C 2.929688 -2.75 3.242188 -2.675781 3.484375 -2.59375 C 3.734375 -2.519531 3.945312 -2.390625 4.125 -2.203125 C 4.300781 -2.015625 4.390625 -1.753906 4.390625 -1.421875 C 4.390625 -0.972656 4.191406 -0.613281 3.796875 -0.34375 C 3.410156 -0.0703125 2.882812 0.0625 2.21875 0.0625 Z M 2.21875 0.0625 "/></g></g></g></svg>